<?xml version="1.0" standalone="no"?>
<!DOCTYPE svg PUBLIC "-//W3C//DTD SVG 20010904//EN"
 "http://www.w3.org/TR/2001/REC-SVG-20010904/DTD/svg10.dtd">
<svg version="1.0" xmlns="http://www.w3.org/2000/svg"
 width="700.000000pt" height="700.000000pt" viewBox="0 0 700.000000 700.000000"
 preserveAspectRatio="xMidYMid meet">
<metadata>
Created by potrace 1.11, written by Peter Selinger 2001-2013
</metadata>
<g transform="translate(0.000000,700.000000) scale(0.100000,-0.100000)"
fill="#000000" stroke="none">
<path d="M554 5419 c-41 -12 -75 -50 -83 -96 -3 -21 -6 -196 -5 -389 1 -345 1
-352 23 -387 15 -25 34 -40 59 -47 23 -6 255 -10 625 -10 640 0 637 0 674 56
17 26 18 58 19 394 1 201 -2 381 -7 400 -21 83 -137 110 -194 45 -43 -49 -108
-126 -215 -255 -62 -74 -124 -149 -139 -165 -14 -17 -42 -50 -62 -75 -20 -25
-47 -57 -61 -72 l-23 -28 -67 83 c-36 45 -75 91 -85 102 -10 11 -50 58 -88
105 -39 47 -77 94 -87 105 -198 240 -213 252 -284 234z"/>
<path d="M40 4253 c-40 -15 -40 -11 -40 -729 l0 -693 71 -143 c40 -79 173
-347 298 -597 124 -249 238 -466 253 -481 15 -15 40 -30 55 -33 35 -7 108 26
126 56 9 17 12 204 13 781 l1 759 23 19 c22 18 41 19 276 16 191 -2 256 -6
266 -16 10 -10 14 -170 18 -781 5 -751 5 -769 25 -791 21 -23 60 -44 83 -43
43 2 55 6 82 31 20 18 117 202 300 569 166 334 278 546 290 553 13 7 181 11
481 13 443 2 461 3 475 21 11 16 14 62 14 211 0 149 3 195 14 211 14 19 47 19
1907 22 1741 2 1894 3 1911 19 17 15 18 45 18 503 0 404 -2 489 -14 506 -13
17 -30 19 -213 22 -256 4 -237 20 -239 -204 -1 -103 -6 -175 -14 -194 -30 -73
-133 -86 -191 -24 -23 25 -24 32 -29 209 -4 132 -9 188 -18 197 -9 9 -53 13
-158 13 -180 0 -174 5 -174 -143 0 -122 -14 -162 -65 -186 -42 -20 -68 -20
-106 0 -48 24 -65 75 -63 185 1 103 -7 134 -40 143 -11 3 -76 6 -142 6 -173 0
-165 11 -168 -213 -2 -161 -4 -180 -23 -205 -44 -59 -132 -62 -180 -5 -27 31
-25 17 -28 222 -3 209 5 199 -174 200 -174 1 -175 0 -178 -141 -1 -56 -4 -110
-6 -118 -16 -73 -98 -111 -165 -76 -48 25 -60 60 -61 179 -1 60 -5 115 -8 123
-10 26 -50 34 -168 34 -119 0 -158 -8 -168 -34 -4 -9 -7 -89 -7 -179 -1 -103
-6 -173 -13 -187 -43 -85 -172 -84 -207 1 -9 20 -13 88 -14 194 -1 215 7 205
-171 205 -180 0 -177 2 -179 -152 -2 -128 -12 -155 -67 -183 -43 -23 -95 -14
-132 23 -29 30 -30 31 -32 153 -3 162 1 159 -180 159 -178 0 -170 10 -171
-206 -1 -104 -6 -175 -14 -194 -31 -75 -136 -87 -195 -20 -18 20 -20 40 -25
206 -4 131 -9 187 -18 196 -9 9 -53 13 -158 13 -180 0 -174 5 -174 -143 0
-123 -14 -162 -66 -187 -42 -20 -79 -17 -117 8 -40 27 -49 58 -51 177 -2 58
-6 112 -10 122 -11 24 -41 28 -176 27 -170 -1 -161 10 -164 -212 -2 -202 -9
-221 -83 -245 -35 -11 -46 -11 -76 2 -65 27 -71 47 -73 244 -2 222 6 212 -170
212 -119 0 -172 -10 -175 -34 -1 -6 -3 -61 -4 -122 -2 -86 -6 -117 -20 -138
-44 -68 -149 -72 -190 -9 -22 33 -23 40 -24 159 -1 143 -1 142 -176 143 -183
1 -175 10 -176 -196 -1 -180 -3 -200 -27 -226 -54 -60 -138 -56 -186 9 -16 23
-19 48 -21 198 -1 94 -5 178 -9 188 -4 9 -17 18 -29 21 -30 7 -368 7 -387 0z"/>
</g>
</svg>
