<?xml version="1.0" encoding="iso-8859-1"?>
<!-- Generator: Adobe Illustrator 19.0.0, SVG Export Plug-In . SVG Version: 6.00 Build 0)  -->
<svg version="1.1" id="Layer_1" xmlns="http://www.w3.org/2000/svg" xmlns:xlink="http://www.w3.org/1999/xlink" x="0px" y="0px"
	 viewBox="0 0 512 512" style="enable-background:new 0 0 512 512;" xml:space="preserve">
<g>
	<g>
		<path d="M507.733,200.536h-25.6c-2.355,0-4.267,1.911-4.267,4.267v21.333c0,4.71-3.823,8.533-8.533,8.533
			s-8.533-3.823-8.533-8.533v-21.333c0-2.355-1.911-4.267-4.267-4.267h-17.067c-2.355,0-4.267,1.911-4.267,4.267v12.8
			c0,4.71-3.823,8.533-8.533,8.533s-8.533-3.823-8.533-8.533v-12.8c0-2.355-1.911-4.267-4.267-4.267H396.8
			c-2.355,0-4.267,1.911-4.267,4.267v21.333c0,4.71-3.823,8.533-8.533,8.533s-8.533-3.823-8.533-8.533v-21.333
			c0-2.355-1.911-4.267-4.267-4.267h-17.067c-2.355,0-4.267,1.911-4.267,4.267v12.8c0,4.71-3.823,8.533-8.533,8.533
			s-8.533-3.823-8.533-8.533v-12.8c0-2.355-1.911-4.267-4.267-4.267h-17.067c-2.355,0-4.267,1.911-4.267,4.267v21.333
			c0,4.71-3.823,8.533-8.533,8.533s-8.533-3.823-8.533-8.533v-21.333c0-2.355-1.911-4.267-4.267-4.267H268.8
			c-2.355,0-4.267,1.911-4.267,4.267v12.8c0,4.71-3.823,8.533-8.533,8.533s-8.533-3.823-8.533-8.533v-12.8
			c0-2.355-1.911-4.267-4.267-4.267h-17.067c-2.355,0-4.267,1.911-4.267,4.267v21.333c0,4.71-3.823,8.533-8.533,8.533
			c-4.71,0-8.533-3.823-8.533-8.533v-21.333c0-2.355-1.911-4.267-4.267-4.267h-17.067c-2.355,0-4.267,1.911-4.267,4.267v12.8
			c0,4.71-3.823,8.533-8.533,8.533s-8.533-3.823-8.533-8.533v-12.8c0-2.355-1.911-4.267-4.267-4.267H140.8
			c-2.355,0-4.267,1.911-4.267,4.267v21.333c0,4.71-3.823,8.533-8.533,8.533s-8.533-3.823-8.533-8.533v-21.333
			c0-2.355-1.911-4.267-4.267-4.267H98.133c-2.355,0-4.267,1.911-4.267,4.267v12.8c0,4.71-3.823,8.533-8.533,8.533
			c-4.71,0-8.533-3.823-8.533-8.533v-12.8c0-2.355-1.911-4.267-4.267-4.267H55.467c-2.355,0-4.267,1.911-4.267,4.267v21.333
			c0,4.71-3.823,8.533-8.533,8.533c-4.71,0-8.533-3.823-8.533-8.533v-21.333c0-2.355-1.911-4.267-4.267-4.267h-25.6
			c-2.355,0-4.267,1.911-4.267,4.267v99.14c0,0.666,0.154,1.314,0.452,1.911l43.119,86.229c1.468,2.944,4.446,4.719,7.629,4.719
			c0.648,0,1.306-0.077,1.963-0.23c3.849-0.904,6.571-4.343,6.571-8.303V281.602c0-2.355,1.911-4.267,4.267-4.267h34.133
			c2.355,0,4.267,1.911,4.267,4.267v106.667c0,3.959,2.722,7.398,6.571,8.303c0.657,0.154,1.314,0.23,1.963,0.23
			c3.183,0,6.161-1.775,7.637-4.719l39.125-78.259c0.725-1.442,2.202-2.355,3.814-2.355h64.623c2.355,0,4.267-1.911,4.267-4.267
			v-25.6c0-2.355,1.911-4.267,4.267-4.267h273.067c2.355,0,4.267-1.911,4.267-4.267v-68.267
			C512,202.447,510.089,200.536,507.733,200.536z"/>
	</g>
</g>
<g>
	<g>
		<path d="M130.901,115.706c-3.371-1.22-7.159-0.196-9.455,2.56l-36.113,43.341L49.22,118.274c-2.304-2.756-6.084-3.78-9.455-2.56
			c-3.379,1.22-5.632,4.429-5.632,8.021v51.2c0,4.71,3.823,8.533,8.533,8.533H128c4.71,0,8.533-3.823,8.533-8.533v-51.2
			C136.533,120.143,134.281,116.935,130.901,115.706z"/>
	</g>
</g>
<g>
</g>
<g>
</g>
<g>
</g>
<g>
</g>
<g>
</g>
<g>
</g>
<g>
</g>
<g>
</g>
<g>
</g>
<g>
</g>
<g>
</g>
<g>
</g>
<g>
</g>
<g>
</g>
<g>
</g>
</svg>
